# xmcd
#
# Track frame offsets:
#	150
#	12118
#	27251
#	37875
#	52557
#	65500
#	76760
#	90327
#	102065
#	114502
#	129107
#	139377
#	163324
#	180459
#	193699
#	205426
#	218582
#	230837
#
# Disc length: 3235 seconds
#
# Revision: 0
# Processed by: cddbd v1.5.2PL0 Copyright (c) Steve Scherf et al.
# Submitted via: EasyCDDAExtractor 16.0.8.2
#
DISCID=e30ca112
DTITLE=Συλλογικός δίσκος - Oldies but goodies 11
DYEAR=2010
DGENRE=Ποικίλη
TTITLE0=The Idols - Τρικυμία στην καρδιά μου [ελλ. απόδ. Αθ. Τσόγκας]
TTITLE1=Χρυσός Τέρης - Μικρή Ντιλάϊλα [ελλ. απόδ. Λευτ. Κογκαλίδης]
TTITLE2=The Charms - Έξω απ' τον κόσμο [ελλ. απόδ. Κώστας Τσερώνης]
TTITLE3=Tammy - Βροχή και δάκρυα [δ. Β.Παπαθανασίου, ελ.απ. Αθ.Τσόγκας]
TTITLE4=Τζαρντανέλλι Λάκης - Μαρία Μανταλένα [ελλ. απόδ. Σέβη Τηλιακού]
TTITLE5=Χρυσός Τέρης - Ντάμπα ντάμπα ντα [Ζακ Ιακωβίδης-Σέβη Τηλιακού]
TTITLE6=We Five - From home
TTITLE7=Κουρούκλη Ζωή-Παπαθανασίου Β. - Oldies but goodies [Β. Παπαθανασίου-Ν.
TTITLE7=Μαστοράκης]
TTITLE8=Ariones - Gimme some lovin'
TTITLE9=Ρούσος Ντέμης-We Five - Sunny afternoon
TTITLE10=The Charms - Respect
TTITLE11=Χρυσός Τέρης - Μάθημα το πάθημα [ελλ. απόδ. Σέβη Τηλιακού]
TTITLE12=Κουρούκλη Ζωή - Το τραγούδι της ειρήνης [Γ. Καστρινός-Μιχ. Γαβριηλίδη
TTITLE12=ς]
TTITLE13=The Idols - Goodbye yesterday
TTITLE14=Pinelli Tony - No no no si si si si
TTITLE15=The Rhodians - Do re mi fa sol Bossa Nova [Αναστ. Γιακουμάκης]
TTITLE16=Παπασταμάτης Τάσος - The shadow of your smile
TTITLE17=Υβόννη - Ζουμ ζουμ ζουμ 
EXTD=
EXTT0=
EXTT1=
EXTT2=
EXTT3=
EXTT4=
EXTT5=
EXTT6=
EXTT7=
EXTT8=
EXTT9=
EXTT10=
EXTT11=
EXTT12=
EXTT13=
EXTT14=
EXTT15=
EXTT16=
EXTT17=
PLAYORDER=
